<svg width="12" height="12" viewBox="0 0 12 12" fill="none" xmlns="http://www.w3.org/2000/svg">
<path d="M10.9375 2.625H9.5375C9.625 2.275 9.625 1.925 9.625 1.575C9.5375 1.3125 9.45 1.05 9.275 0.7875C9.1 0.525 8.925 0.35 8.6625 0.2625C8.4 0.175 8.1375 0 7.875 0C7.6125 0 7.35 3.91155e-08 7.0875 0.175C6.475 0.35 6.0375 0.7875 5.6875 1.3125C5.3375 0.7875 4.9 0.35 4.2875 0.175C4.025 0.0875 3.7625 0 3.5 0C3.2375 0 2.975 0.0875 2.7125 0.2625C2.45 0.35 2.275 0.525 2.1 0.7875C1.925 0.9625 1.8375 1.3125 1.75 1.575C1.75 1.925 1.75 2.275 1.8375 2.625H0.4375L0 3.0625V10.9375L0.4375 11.375H10.9375L11.375 10.9375V3.0625L10.9375 2.625ZM5.25 10.5H0.875V3.5H5.25V10.5ZM5.25 2.625H2.625V2.45C2.5375 2.1875 2.5375 2.0125 2.5375 1.75C2.625 1.575 2.625 1.4 2.8 1.3125C2.8875 1.1375 3.0625 1.05 3.2375 0.9625C3.325 0.875 3.5 0.875 3.675 0.875C3.85 0.875 4.025 0.875 4.2 0.9625C4.4625 1.05 4.725 1.225 4.9 1.4875C5.075 1.75 5.25 2.0125 5.25 2.3625V2.625ZM6.125 2.3625C6.125 2.0125 6.3 1.75 6.475 1.4875C6.65 1.225 6.9125 1.05 7.175 0.9625C7.35 0.875 7.525 0.875 7.7 0.875C7.875 0.875 8.05 0.875 8.225 0.9625C8.4 1.05 8.4875 1.1375 8.6625 1.3125C8.75 1.4 8.75 1.575 8.8375 1.75C8.8375 2.0125 8.8375 2.1875 8.75 2.45C8.75 2.5375 8.75 2.5375 8.6625 2.625H6.125V2.3625ZM10.5 10.5H6.125V3.5H10.5V10.5Z" fill="#BFAB64"/>
</svg>
